<svg width="64" height="64" viewBox="0 0 64 64" fill="none" xmlns="http://www.w3.org/2000/svg">
  <!-- Ears -->
  <path d="M12 8 L20 8 L20 20 L12 20 Z" fill="#D4A054" stroke="#000" stroke-width="3"/>
  <path d="M44 8 L52 8 L52 20 L44 20 Z" fill="#D4A054" stroke="#000" stroke-width="3"/>
  <!-- Inner ears -->
  <path d="M14 10 L18 10 L18 16 L14 16 Z" fill="#C084FC"/>
  <path d="M46 10 L50 10 L50 16 L46 16 Z" fill="#C084FC"/>
  <!-- Head -->
  <rect x="8" y="16" width="48" height="40" rx="4" fill="#E8B86D" stroke="#000" stroke-width="3"/>
  <!-- Face mask -->
  <path d="M20 30 L44 30 L44 52 L36 56 L28 56 L20 52 Z" fill="#F5DEB3"/>
  <!-- Eyes -->
  <circle cx="22" cy="32" r="4" fill="#000"/>
  <circle cx="42" cy="32" r="4" fill="#000"/>
  <!-- Eye shine -->
  <circle cx="24" cy="30" r="1.5" fill="#fff"/>
  <circle cx="44" cy="30" r="1.5" fill="#fff"/>
  <!-- Nose -->
  <ellipse cx="32" cy="42" rx="4" ry="3" fill="#333"/>
  <!-- Nose shine -->
  <ellipse cx="33.5" cy="41" rx="1" ry="0.7" fill="#666"/>
  <!-- Mouth -->
  <path d="M32 45 L28 50" stroke="#333" stroke-width="2" stroke-linecap="round"/>
  <path d="M32 45 L36 50" stroke="#333" stroke-width="2" stroke-linecap="round"/>
  <!-- Tongue -->
  <ellipse cx="32" cy="53" rx="3" ry="4" fill="#F43F5E" stroke="#000" stroke-width="1.5"/>
  <!-- Eyebrows -->
  <path d="M17 27 L27 28" stroke="#000" stroke-width="2.5" stroke-linecap="round"/>
  <path d="M47 27 L37 28" stroke="#000" stroke-width="2.5" stroke-linecap="round"/>
  <!-- Cheek blush -->
  <circle cx="16" cy="38" r="3" fill="#F43F5E" opacity="0.3"/>
  <circle cx="48" cy="38" r="3" fill="#F43F5E" opacity="0.3"/>
</svg>
